# xmcd
#
# Track frame offsets: 
#        150
#        25175
#        46292
#        66092
#        88317
#        97365
#        115790
#        135152
#        155962
#        171497
#
# Disc length: 2616 seconds
#
# Revision: 2
# Processed by: cddbd v1.5.1PL0 Copyright (c) Steve Scherf et al.
# Submitted via: ExactAudioCopy v0.95a3
#
DISCID=8c0a360a
DTITLE=潘越雲-Michelle Pan - 純情青春夢-Dreams Of Youth
DYEAR=1992
DGENRE=Taiwanese Pop
TTITLE0=純情青春夢-Dreams Of Youth
TTITLE1=西子灣之戀-Great Admiration Of Shi-Tsi Bay
TTITLE2=茶室春秋-Story Of A Tavern
TTITLE3=春嬌和志明-Jack And Jill
TTITLE4=貓-Cats
TTITLE5=看見船就流眼淚\-Sad To See A Boat
TTITLE6=歸鄉-Homecoming
TTITLE7=舞池-The Dancing Pool
TTITLE8=再會夜都市-Goodbye! City Of Night
TTITLE9=紅娘-The Lovesick Girl
EXTD=ID3G: 2
EXTT0=
EXTT1=
EXTT2=
EXTT3=
EXTT4=
EXTT5=
EXTT6=
EXTT7=
EXTT8=
EXTT9=
PLAYORDER=
